# This file uses centimeters as units for non-parametric coordinates.

mtllib box.mtl
g default
v -10.000000 -10.000000 15.000000
v 10.000000 -10.000000 15.000000
v -10.000000 10.000000 15.000000
v 10.000000 10.000000 15.000000
v -10.000000 10.000000 -15.000000
v 10.000000 10.000000 -15.000000
v -10.000000 -10.000000 -15.000000
v 10.000000 -10.000000 -15.000000
vt 0.375000 0.250000
vt 0.625000 0.250000
vt 0.375000 0.500000
vt 0.625000 0.500000
vt 0.375000 0.750000
vt 0.625000 0.750000
vt 0.375000 1.000000
vt 0.625000 1.000000
vt 0.625000 0.000000
vt 0.875000 0.000000
vt 0.875000 0.250000
vt 0.125000 0.000000
vt 0.375000 0.000000
vt 0.125000 0.250000
vn 0.000000 1.000000 0.000000
vn 0.000000 1.000000 0.000000
vn 0.000000 1.000000 0.000000
vn 0.000000 1.000000 0.000000
vn 0.000000 1.000000 0.000000
vn 0.000000 1.000000 0.000000
vn 0.000000 0.000000 -1.000000
vn 0.000000 0.000000 -1.000000
vn 0.000000 0.000000 -1.000000
vn 0.000000 0.000000 -1.000000
vn 0.000000 0.000000 -1.000000
vn 0.000000 0.000000 -1.000000
vn 0.000000 -1.000000 0.000000
vn 0.000000 -1.000000 0.000000
vn 0.000000 -1.000000 0.000000
vn 0.000000 -1.000000 0.000000
vn 0.000000 -1.000000 0.000000
vn 0.000000 -1.000000 0.000000
vn 1.000000 0.000000 0.000000
vn 1.000000 0.000000 0.000000
vn 1.000000 0.000000 0.000000
vn 1.000000 0.000000 0.000000
vn 1.000000 0.000000 0.000000
vn 1.000000 0.000000 0.000000
vn -1.000000 0.000000 0.000000
vn -1.000000 0.000000 0.000000
vn -1.000000 0.000000 0.000000
vn -1.000000 0.000000 0.000000
vn -1.000000 0.000000 0.000000
vn -1.000000 0.000000 0.000000
s off
g box:pCube1
usemtl box:initialShadingGroup
f 3/1/1 4/2/2 5/3/3
f 5/3/4 4/2/5 6/4/6
f 5/3/7 6/4/8 7/5/9
f 7/5/10 6/4/11 8/6/12
f 7/5/13 8/6/14 1/7/15
f 1/7/16 8/6/17 2/8/18
f 2/9/19 8/10/20 4/2/21
f 4/2/22 8/10/23 6/11/24
f 7/12/25 1/13/26 5/14/27
f 5/14/28 1/13/29 3/1/30
